# xmcd
#
# Track frame offsets: 
#        150
#        10299
#        21288
#        34315
#        46162
#        55040
#        67469
#        80805
#        94717
#        110040
#        122925
#        132668
#        141988
#        158867
#        167520
#        176997
#        202855
#        213391
#        226210
#        237799
#        253308
#        263603
#        282468
#        297379
#        306288
#        319869
#
# Disc length: 4372 seconds
#
# Revision: 1
# Processed by: cddbd v1.5.2PL0 Copyright (c) Steve Scherf et al.
# Submitted via: ExactAudioCopy v1.3
#
DISCID=9311121a
DTITLE=Marty Robbins - The Complete Recordings 1952-1960_CD4
DYEAR=2017
DGENRE=Country
TTITLE0=Ain't I the Lucky One
TTITLE1=She Was Only Seventeen (He Was One Year More)
TTITLE2=The Hanging Tree
TTITLE3=The Blues Country Style
TTITLE4=Cap and Gown
TTITLE5=Last Night About This Time
TTITLE6=The Letter Edged in Black
TTITLE7=The Little Rosewood Casket
TTITLE8=The Dream of the Miner's Child
TTITLE9=The Convict and the Rose
TTITLE10=Is There Any Chance
TTITLE11=I Told My Heart
TTITLE12=Ballad of the Alamo
TTITLE13=A Time and Place for Everything
TTITLE14=Saddle Tramp
TTITLE15=San Angelo
TTITLE16=Prairie Fire
TTITLE17=Streets of Loredo
TTITLE18=Song of the Bandit
TTITLE19=I've Got No Use for the Woman
TTITLE20=Five Brothers
TTITLE21=Little Joe the Wrangler
TTITLE22=Ride, Cowboy Ride
TTITLE23=This Peaceful Sod
TTITLE24=She Was Young and She Was Pretty
TTITLE25=My Love
EXTD=
EXTT0=
EXTT1=
EXTT2=
EXTT3=
EXTT4=
EXTT5=
EXTT6=
EXTT7=
EXTT8=
EXTT9=
EXTT10=
EXTT11=
EXTT12=
EXTT13=
EXTT14=
EXTT15=
EXTT16=
EXTT17=
EXTT18=
EXTT19=
EXTT20=
EXTT21=
EXTT22=
EXTT23=
EXTT24=
EXTT25=
PLAYORDER=
